<svg xmlns="http://www.w3.org/2000/svg" width="36.092" height="36.087" viewBox="0 0 36.092 36.087">
  <path id="Exclusion_7" data-name="Exclusion 7" d="M-15686.954-7283.912a17.933,17.933,0,0,1-7.024-1.418,17.978,17.978,0,0,1-5.737-3.868,17.987,17.987,0,0,1-3.868-5.735,17.945,17.945,0,0,1-1.418-7.023,17.945,17.945,0,0,1,1.418-7.023,17.973,17.973,0,0,1,3.868-5.735,17.978,17.978,0,0,1,5.737-3.868,17.933,17.933,0,0,1,7.024-1.418,17.927,17.927,0,0,1,7.022,1.418,18,18,0,0,1,5.736,3.868,17.981,17.981,0,0,1,3.867,5.735,17.945,17.945,0,0,1,1.418,7.023,17.949,17.949,0,0,1-1.418,7.023,18,18,0,0,1-3.867,5.735,17.992,17.992,0,0,1-5.736,3.868A17.927,17.927,0,0,1-15686.954-7283.912Zm-5.849-21.67h0l-.8.8-.689.689-2.53,2.531-.69.689-2.53,2.531,2.53,2.53.69.689,2.53,2.531.689.689.832.832h5.061l-.832-.832-2.53-2.53-.689-.69-2.53-2.53-.689-.689.689-.69,2.53-2.53.689-.69,2.53-2.53.8-.8h-5.061Zm6.929,0h0l-1.489,1.489-2.534,2.531-.689.689-2.53,2.531,2.53,2.53,2.534-2.53.689-.69,2.53-2.53,4.021-4.021Zm-.308-7.256-.008,0,7.264,7.264-7.24,7.245h5.061l4.711-4.71,2.53-2.535-2.53-2.526-4.742-4.741Z" transform="translate(15705.002 7319.999)" fill="#0089ff"/>
</svg>
